<svg xmlns="http://www.w3.org/2000/svg" viewBox="0 0 128 128" role="img" aria-label="MediaCookies presentation icon">
  <defs>
    <linearGradient id="ivory" x1="0" y1="0" x2="1" y2="1">
      <stop offset="0" stop-color="#fffdf8" />
      <stop offset="1" stop-color="#f3ede2" />
    </linearGradient>
    <mask id="passage-cutout">
      <rect width="128" height="128" fill="black" />
      <circle cx="59" cy="64" r="35" fill="white" />
      <path d="M53 50c0-3 3.2-4.7 5.6-3.2l21.8 13.7c2.4 1.5 2.4 5.5 0 7L58.6 81.2C56.2 82.7 53 81 53 78z" fill="black" />
      <path d="M72 47 101 25v78L72 81l11-13H70v-8h13z" fill="black" />
    </mask>
  </defs>
  <rect x="16.5" y="16.5" width="95" height="95" rx="24.5" fill="url(#ivory)" stroke="#e6ded1" />
  <rect width="128" height="128" fill="#2f3740" mask="url(#passage-cutout)" />
  <path d="M78 50.5 92.5 40c2.2-1.6 5 .2 6 3.2a32 32 0 0 1 1.5 14.3c-.3 2.2-1.8 3.5-3.8 3.5H80.8c-1.5 0-2.6-.7-3.4-1.9l-.8-1.3c-1.8-2.7-.8-5.6 1.4-7.3z" fill="#67c2cb" />
  <path d="M80.8 67h15.4c2 0 3.5 1.3 3.8 3.5a32 32 0 0 1-1.5 14.3c-1 3-3.8 4.8-6 3.2L78 77.5c-2.2-1.7-3.2-4.6-1.4-7.3l.8-1.3c.8-1.2 1.9-1.9 3.4-1.9z" fill="#9b84cc" />
</svg>
