<svg xmlns="http://www.w3.org/2000/svg" viewBox="0 0 128 128" role="img" aria-label="MediaCookies passage mark">
  <defs>
    <filter id="theme-keyline" x="-10%" y="-10%" width="120%" height="120%">
      <feMorphology in="SourceAlpha" operator="dilate" radius="2.4" result="expanded" />
      <feFlood flood-color="#fffaf1" result="ivory" />
      <feComposite in="ivory" in2="expanded" operator="in" result="outline" />
      <feMerge>
        <feMergeNode in="outline" />
        <feMergeNode in="SourceGraphic" />
      </feMerge>
    </filter>
    <mask id="passage-cutout">
      <rect width="128" height="128" fill="black" />
      <circle cx="58" cy="64" r="52" fill="white" />
      <path d="M49 43.5c0-4 4.3-6.5 7.7-4.4l33 20.5c3.2 2 3.2 6.8 0 8.8l-33 20.5c-3.4 2.1-7.7-.4-7.7-4.4z" fill="black" />
      <path d="M78 38 128 0v128L78 90l16-20H73V58h21z" fill="black" />
    </mask>
  </defs>
  <g transform="translate(10.9 10.9) scale(.83)" filter="url(#theme-keyline)">
    <rect width="128" height="128" fill="#2f3740" mask="url(#passage-cutout)" />
    <path d="M87 43 109 27c3-2 7 .1 8.5 4.6a49 49 0 0 1 2.4 23.2c-.4 3.2-2.6 5.2-5.5 5.2H90.3c-2 0-3.7-1-4.8-2.7l-1.4-2.2c-2.6-4-1.3-9.1 2.9-12.1z" fill="#67c2cb" />
    <path d="M90.3 68h24.1c2.9 0 5.1 2 5.5 5.2a49 49 0 0 1-2.4 23.2c-1.5 4.5-5.5 6.6-8.5 4.6L87 85c-4.2-3-5.5-8.1-2.9-12.1l1.4-2.2c1.1-1.7 2.8-2.7 4.8-2.7z" fill="#9b84cc" />
  </g>
</svg>
